<svg width="32" height="33" viewBox="0 0 32 33" fill="none" xmlns="http://www.w3.org/2000/svg">
<g clip-path="url(#clip0)">
<rect width="32" height="32.0626" fill="white"/>
<path d="M19.4992 7.54284L19.4998 7.54223C19.6939 7.32318 20.0925 7.163 20.9264 7.16298C20.9264 7.16298 20.9265 7.16298 20.9266 7.16298L23.5626 7.162H23.5628C24.1442 7.162 24.6179 6.68831 24.6179 6.10671V1.49908C24.6179 0.918729 24.1448 0.444817 23.5645 0.443798C23.5644 0.443798 23.5644 0.443798 23.5644 0.443798L19.6494 0.437439C19.6493 0.437439 19.6491 0.437439 19.649 0.437439C17.3455 0.437528 15.4278 1.19476 14.066 2.59218L14.066 2.59219C12.7092 3.98435 11.9706 5.9472 11.9706 8.30534V10.7904V11.2904H11.4706H8.47501C7.89352 11.2904 7.41972 11.7642 7.41972 12.3457V17.308C7.41972 17.8895 7.89352 18.3633 8.47501 18.3633H11.4706H11.9706V18.8633V30.4448C11.9706 31.0263 12.4444 31.5001 13.0259 31.5001H18.1604C18.7419 31.5001 19.2157 31.0263 19.2157 30.4448V18.8636V18.3636H19.7157H23.3774C23.9588 18.3636 24.4324 17.8896 24.4324 17.3085V17.3083L24.4344 12.346C24.4344 12.3459 24.4344 12.3458 24.4344 12.3458C24.4343 11.9644 24.2265 11.6099 23.8905 11.4222L19.4992 7.54284ZM19.4992 7.54284C19.3796 7.67826 19.3162 7.85536 19.2781 8.04015C19.2382 8.23357 19.2157 8.4883 19.2157 8.82712V10.7904V11.2904M19.4992 7.54284L19.2157 11.2904M19.2157 11.2904H19.7157M19.2157 11.2904H19.7157M19.7157 11.2904H23.3649C23.5583 11.2904 23.7399 11.3381 23.8905 11.4222L19.7157 11.2904Z" fill="#1778F2" stroke="white"/>
</g>
<defs>
<clipPath id="clip0">
<rect width="32" height="32.0626" fill="white"/>
</clipPath>
</defs>
</svg>
