<svg width="32" height="32" viewBox="0 0 32 32" fill="none" xmlns="http://www.w3.org/2000/svg">
<path d="M7.5 16C7.5 14.4146 7.93681 12.9294 8.69569 11.6577V6.26344H3.30144C1.1605 9.04394 0 12.4326 0 16C0 19.5674 1.1605 22.9561 3.30144 25.7366H8.69569V20.3423C7.93681 19.0706 7.5 17.5854 7.5 16Z" fill="#FBBD00"/>
<path d="M16 24.4999L12.25 28.2499L16 31.9999C19.5674 31.9999 22.9561 30.8394 25.7366 28.6985V23.31H20.3481C19.0652 24.0716 17.5738 24.4999 16 24.4999Z" fill="#0F9D58"/>
<path d="M8.69569 20.3424L3.30144 25.7366C3.72532 26.2871 4.18688 26.8143 4.68632 27.3138C7.70832 30.3358 11.7263 32.0001 16 32.0001V24.5001C12.8985 24.5001 10.1802 22.8301 8.69569 20.3424Z" fill="#31AA52"/>
<path d="M32 16.0001C32 15.0267 31.9119 14.0514 31.738 13.1015L31.5973 12.3329H16V19.8329H23.5907C22.8536 21.2992 21.7202 22.4955 20.348 23.3102L25.7365 28.6987C26.287 28.2749 26.8142 27.8133 27.3137 27.3139C30.3357 24.2918 32 20.2739 32 16.0001Z" fill="#3C79E6"/>
<path d="M22.0104 9.98956L22.6733 10.6524L27.9766 5.34919L27.3138 4.68631C24.2918 1.66431 20.2738 0 16 0L12.25 3.75L16 7.5C18.2704 7.5 20.4049 8.38412 22.0104 9.98956Z" fill="#CF2D48"/>
<path d="M16 7.5V0C11.7263 0 7.70835 1.66431 4.68628 4.68625C4.18684 5.18569 3.72528 5.71287 3.3014 6.26344L8.69566 11.6577C10.1802 9.17 12.8985 7.5 16 7.5Z" fill="#EB4132"/>
</svg>
