<svg width="530" height="218" viewBox="0 0 530 218" fill="none" xmlns="http://www.w3.org/2000/svg">
<path d="M10.7898 42H17.0284L24.0341 17.5057H24.3068L31.2955 42H37.5341L47.3864 7.09091H40.5852L34.2955 32.7614H33.9886L27.2557 7.09091H21.0682L14.3523 32.7443H14.0284L7.73864 7.09091H0.9375L10.7898 42ZM60.4176 42.5114C66.5199 42.5114 70.7131 39.5284 71.804 34.9773L66.0426 34.3295C65.2074 36.5455 63.1619 37.7045 60.5028 37.7045C56.5142 37.7045 53.8722 35.0795 53.821 30.5966H72.0597V28.7045C72.0597 19.517 66.5369 15.4773 60.0938 15.4773C52.5938 15.4773 47.7017 20.983 47.7017 29.0625C47.7017 37.2784 52.5256 42.5114 60.4176 42.5114ZM53.8381 26.4375C54.0256 23.0966 56.4972 20.2841 60.179 20.2841C63.7244 20.2841 66.1108 22.875 66.1449 26.4375H53.8381ZM82.5128 7.09091H77.6037V10.6023C77.6037 13.3807 76.5128 15.5114 75.2685 17.3864L78.1321 19.2443C80.6378 17.1648 82.5128 13.5852 82.5128 10.5682V7.09091ZM111.588 15.8182H105.026L98.9915 35.267H98.7188L92.7017 15.8182H86.1222L95.446 42H102.264L111.588 15.8182ZM126.558 42.5114C132.661 42.5114 136.854 39.5284 137.945 34.9773L132.183 34.3295C131.348 36.5455 129.303 37.7045 126.643 37.7045C122.655 37.7045 120.013 35.0795 119.962 30.5966H138.2V28.7045C138.2 19.517 132.678 15.4773 126.234 15.4773C118.734 15.4773 113.842 20.983 113.842 29.0625C113.842 37.2784 118.666 42.5114 126.558 42.5114ZM119.979 26.4375C120.166 23.0966 122.638 20.2841 126.32 20.2841C129.865 20.2841 132.251 22.875 132.286 26.4375H119.979ZM155.599 42H161.668V37.875H162.026C162.997 39.7841 165.026 42.4602 169.526 42.4602C175.696 42.4602 180.315 37.5682 180.315 28.9432C180.315 20.2159 175.56 15.4773 169.509 15.4773C164.889 15.4773 162.963 18.2557 162.026 20.1477H161.77V7.09091H155.599V42ZM161.651 28.9091C161.651 23.8295 163.832 20.5398 167.804 20.5398C171.912 20.5398 174.026 24.0341 174.026 28.9091C174.026 33.8182 171.878 37.3977 167.804 37.3977C163.866 37.3977 161.651 33.9886 161.651 28.9091ZM197.152 42.5114C203.254 42.5114 207.447 39.5284 208.538 34.9773L202.777 34.3295C201.942 36.5455 199.896 37.7045 197.237 37.7045C193.249 37.7045 190.607 35.0795 190.555 30.5966H208.794V28.7045C208.794 19.517 203.271 15.4773 196.828 15.4773C189.328 15.4773 184.436 20.983 184.436 29.0625C184.436 37.2784 189.26 42.5114 197.152 42.5114ZM190.572 26.4375C190.76 23.0966 193.232 20.2841 196.913 20.2841C200.459 20.2841 202.845 22.875 202.879 26.4375H190.572ZM225.605 42.5114C231.707 42.5114 235.901 39.5284 236.991 34.9773L231.23 34.3295C230.395 36.5455 228.349 37.7045 225.69 37.7045C221.702 37.7045 219.06 35.0795 219.009 30.5966H237.247V28.7045C237.247 19.517 231.724 15.4773 225.281 15.4773C217.781 15.4773 212.889 20.983 212.889 29.0625C212.889 37.2784 217.713 42.5114 225.605 42.5114ZM219.026 26.4375C219.213 23.0966 221.685 20.2841 225.366 20.2841C228.912 20.2841 231.298 22.875 231.332 26.4375H219.026ZM248.638 26.6591C248.638 22.875 250.922 20.6932 254.178 20.6932C257.365 20.6932 259.274 22.7898 259.274 26.2841V42H265.445V25.3295C265.462 19.0568 261.882 15.4773 256.479 15.4773C252.558 15.4773 249.865 17.3523 248.672 20.267H248.365V15.8182H242.467V42H248.638V26.6591ZM250.006 100.767C254.812 100.767 257.591 98.2784 259.074 94.1705L269.591 64.8523L262.994 64.8182L256.943 84.5909H256.67L250.636 64.8182H244.091L253.585 91.5455L253.057 92.9602C251.881 95.858 250.108 96.0795 247.415 95.3125L245.983 100.102C246.818 100.46 248.318 100.767 250.006 100.767ZM284.403 91.5114C292.074 91.5114 296.949 86.108 296.949 78.0114C296.949 69.8977 292.074 64.4773 284.403 64.4773C276.733 64.4773 271.858 69.8977 271.858 78.0114C271.858 86.108 276.733 91.5114 284.403 91.5114ZM284.438 86.5682C280.193 86.5682 278.114 82.7841 278.114 77.9943C278.114 73.2045 280.193 69.3693 284.438 69.3693C288.614 69.3693 290.693 73.2045 290.693 77.9943C290.693 82.7841 288.614 86.5682 284.438 86.5682ZM318.874 79.9886C318.874 83.9773 316.027 85.9545 313.3 85.9545C310.334 85.9545 308.357 83.858 308.357 80.5341V64.8182H302.186V81.4886C302.186 87.7784 305.766 91.3409 310.913 91.3409C314.834 91.3409 317.595 89.2784 318.788 86.3466H319.061V91H325.044V64.8182H318.874V79.9886ZM338.94 56.0909H332.344L332.889 80.7386H338.378L338.94 56.0909ZM335.634 91.375C337.645 91.375 339.366 89.7045 339.384 87.625C339.366 85.5795 337.645 83.9091 335.634 83.9091C333.554 83.9091 331.866 85.5795 331.884 87.625C331.866 89.7045 333.554 91.375 335.634 91.375Z" fill="white"/>
<path d="M14.7614 91.5114C20.8636 91.5114 25.0568 88.5284 26.1477 83.9773L20.3864 83.3295C19.5511 85.5455 17.5057 86.7045 14.8466 86.7045C10.858 86.7045 8.21591 84.0795 8.16477 79.5966H26.4034V77.7045C26.4034 68.517 20.8807 64.4773 14.4375 64.4773C6.9375 64.4773 2.04545 69.983 2.04545 78.0625C2.04545 86.2784 6.86932 91.5114 14.7614 91.5114ZM8.18182 75.4375C8.36932 72.0966 10.8409 69.2841 14.5227 69.2841C18.0682 69.2841 20.4545 71.875 20.4886 75.4375H8.18182ZM36.1534 64.8182H29.608L37.3807 77.9091L29.4034 91H35.9489L41.4375 81.5739L46.9773 91H53.4716L45.4432 77.9091L53.3352 64.8182H46.8068L41.4375 74.483L36.1534 64.8182ZM58.108 100.818H64.2784V86.875H64.5341C65.5057 88.7841 67.5341 91.4602 72.0341 91.4602C78.2045 91.4602 82.8239 86.5682 82.8239 77.9432C82.8239 69.2159 78.0682 64.4773 72.017 64.4773C67.3977 64.4773 65.4716 67.2557 64.5341 69.1477H64.1761V64.8182H58.108V100.818ZM64.1591 77.9091C64.1591 72.8295 66.3409 69.5398 70.3125 69.5398C74.4205 69.5398 76.5341 73.0341 76.5341 77.9091C76.5341 82.8182 74.3864 86.3977 70.3125 86.3977C66.375 86.3977 64.1591 82.9886 64.1591 77.9091ZM99.6989 91.5114C105.801 91.5114 109.994 88.5284 111.085 83.9773L105.324 83.3295C104.489 85.5455 102.443 86.7045 99.7841 86.7045C95.7955 86.7045 93.1534 84.0795 93.1023 79.5966H111.341V77.7045C111.341 68.517 105.818 64.4773 99.375 64.4773C91.875 64.4773 86.983 69.983 86.983 78.0625C86.983 86.2784 91.8068 91.5114 99.6989 91.5114ZM93.1193 75.4375C93.3068 72.0966 95.7784 69.2841 99.4602 69.2841C103.006 69.2841 105.392 71.875 105.426 75.4375H93.1193ZM127.982 91.5114C134.561 91.5114 138.754 87.608 139.197 82.0511H133.3C132.771 84.8636 130.743 86.483 128.033 86.483C124.18 86.483 121.692 83.2614 121.692 77.9091C121.692 72.625 124.232 69.4545 128.033 69.4545C130.999 69.4545 132.822 71.3636 133.3 73.8864H139.197C138.771 68.2102 134.339 64.4773 127.947 64.4773C120.277 64.4773 115.436 70.017 115.436 78.0114C115.436 85.9375 120.158 91.5114 127.982 91.5114ZM157.338 64.8182H152.173V58.5455H146.003V64.8182H142.287V69.5909H146.003V84.1477C145.969 89.0739 149.548 91.4943 154.185 91.358C155.94 91.3068 157.151 90.9659 157.815 90.7443L156.776 85.9205C156.435 86.0057 155.736 86.1591 154.969 86.1591C153.418 86.1591 152.173 85.6136 152.173 83.125V69.5909H157.338V64.8182ZM162.499 91H168.669V64.8182H162.499V91ZM165.601 61.1023C167.561 61.1023 169.163 59.6023 169.163 57.7614C169.163 55.9034 167.561 54.4034 165.601 54.4034C163.624 54.4034 162.021 55.9034 162.021 57.7614C162.021 59.6023 163.624 61.1023 165.601 61.1023ZM181.185 75.6591C181.185 71.875 183.469 69.6932 186.724 69.6932C189.912 69.6932 191.821 71.7898 191.821 75.2841V91H197.991V74.3295C198.009 68.0568 194.429 64.4773 189.026 64.4773C185.105 64.4773 182.412 66.3523 181.219 69.267H180.912V64.8182H175.014V91H181.185V75.6591ZM215.651 101.261C222.724 101.261 227.94 98.0227 227.94 91.4261V64.8182H221.855V69.1477H221.514C220.577 67.2557 218.616 64.4773 213.997 64.4773C207.946 64.4773 203.19 69.2159 203.19 77.8239C203.19 86.3636 207.946 90.625 213.98 90.625C218.463 90.625 220.56 88.2216 221.514 86.2955H221.821V91.2557C221.821 95.0057 219.264 96.5909 215.753 96.5909C212.037 96.5909 210.401 94.8352 209.651 93.4034L204.094 94.75C205.219 98.3125 208.986 101.261 215.651 101.261ZM215.702 85.7841C211.628 85.7841 209.48 82.6136 209.48 77.7898C209.48 73.0341 211.594 69.5398 215.702 69.5398C219.673 69.5398 221.855 72.8295 221.855 77.7898C221.855 82.7841 219.639 85.7841 215.702 85.7841Z" fill="#207BE7"/>
<path d="M2.59375 140H0.5625L6.4375 156H8.4375L14.3125 140H12.2812L7.53125 153.469H7.34375L2.59375 140ZM20.4688 156.25C22.9063 156.25 24.6875 155.031 25.25 153.219L23.4688 152.719C23 153.969 21.9141 154.594 20.4688 154.594C18.3047 154.594 16.8125 153.195 16.7266 150.625H25.4375V149.844C25.4375 145.375 22.7813 143.844 20.2812 143.844C17.0313 143.844 14.875 146.406 14.875 150.094C14.875 153.781 17 156.25 20.4688 156.25ZM16.7266 149.031C16.8516 147.164 18.1719 145.5 20.2812 145.5C22.2813 145.5 23.5625 147 23.5625 149.031H16.7266ZM30.0859 140H28.2422V156H30.0859V140ZM33.4629 156H35.3066V144H33.4629V156ZM34.4004 142C35.1191 142 35.7129 141.438 35.7129 140.75C35.7129 140.063 35.1191 139.5 34.4004 139.5C33.6816 139.5 33.0879 140.063 33.0879 140.75C33.0879 141.438 33.6816 142 34.4004 142ZM43.9023 144H41.3398V141.125H39.4961V144H37.6836V145.562H39.4961V153.062C39.4961 155.156 41.1836 156.156 42.7461 156.156C43.4336 156.156 43.8711 156.031 44.1211 155.937L43.7461 154.281C43.5898 154.312 43.3398 154.375 42.9336 154.375C42.1211 154.375 41.3398 154.125 41.3398 152.562V145.562H43.9023V144ZM57.3945 156.25C59.707 156.25 60.4883 154.812 60.8945 154.156H61.1133V156H62.8945V140H61.0508V145.906H60.8945C60.4883 145.281 59.7695 143.844 57.4258 143.844C54.3945 143.844 52.3008 146.25 52.3008 150.031C52.3008 153.844 54.3945 156.25 57.3945 156.25ZM57.6445 154.594C55.332 154.594 54.1445 152.562 54.1445 150C54.1445 147.469 55.3008 145.5 57.6445 145.5C59.8945 145.5 61.082 147.312 61.082 150C61.082 152.719 59.8633 154.594 57.6445 154.594ZM71.4023 156.25C74.6523 156.25 76.8398 153.781 76.8398 150.062C76.8398 146.312 74.6523 143.844 71.4023 143.844C68.1523 143.844 65.9648 146.312 65.9648 150.062C65.9648 153.781 68.1523 156.25 71.4023 156.25ZM71.4023 154.594C68.9336 154.594 67.8086 152.469 67.8086 150.062C67.8086 147.656 68.9336 145.5 71.4023 145.5C73.8711 145.5 74.9961 147.656 74.9961 150.062C74.9961 152.469 73.8711 154.594 71.4023 154.594ZM81.498 140H79.6543V156H81.498V140ZM89.75 156.25C93 156.25 95.1875 153.781 95.1875 150.062C95.1875 146.312 93 143.844 89.75 143.844C86.5 143.844 84.3125 146.312 84.3125 150.062C84.3125 153.781 86.5 156.25 89.75 156.25ZM89.75 154.594C87.2813 154.594 86.1563 152.469 86.1563 150.062C86.1563 147.656 87.2813 145.5 89.75 145.5C92.2188 145.5 93.3438 147.656 93.3438 150.062C93.3438 152.469 92.2188 154.594 89.75 154.594ZM98.002 156H99.8457V148.406C99.8457 146.781 101.127 145.594 102.877 145.594C103.369 145.594 103.877 145.688 104.002 145.719V143.844C103.791 143.828 103.307 143.812 103.033 143.812C101.596 143.812 100.346 144.625 99.9082 145.812H99.7832V144H98.002V156ZM122.406 160.5V144H120.625V145.906H120.406C120 145.281 119.281 143.844 116.937 143.844C113.906 143.844 111.813 146.25 111.813 150.031C111.813 153.844 113.906 156.25 116.906 156.25C119.219 156.25 120 154.812 120.406 154.156H120.563V160.5H122.406ZM120.594 150C120.594 152.719 119.375 154.594 117.156 154.594C114.844 154.594 113.656 152.562 113.656 150C113.656 147.469 114.812 145.5 117.156 145.5C119.406 145.5 120.594 147.312 120.594 150ZM133.344 151.094C133.344 153.344 131.625 154.375 130.25 154.375C128.719 154.375 127.625 153.25 127.625 151.5V144H125.781V151.625C125.781 154.687 127.406 156.156 129.656 156.156C131.469 156.156 132.656 155.187 133.219 153.969H133.344V156H135.188V144H133.344V151.094ZM138.564 156H140.408V144H138.564V156ZM139.502 142C140.221 142 140.814 141.438 140.814 140.75C140.814 140.063 140.221 139.5 139.502 139.5C138.783 139.5 138.189 140.063 138.189 140.75C138.189 141.438 138.783 142 139.502 142ZM149.973 156H151.816V144H149.973V156ZM150.91 142C151.629 142 152.223 141.438 152.223 140.75C152.223 140.063 151.629 139.5 150.91 139.5C150.191 139.5 149.598 140.063 149.598 140.75C149.598 141.438 150.191 142 150.91 142ZM155.193 156H157.037V148.406C157.037 146.781 158.318 145.594 160.068 145.594C160.561 145.594 161.068 145.688 161.193 145.719V143.844C160.982 143.828 160.498 143.812 160.225 143.812C158.787 143.812 157.537 144.625 157.1 145.812H156.975V144H155.193V156ZM170.941 151.094C170.941 153.344 169.223 154.375 167.848 154.375C166.316 154.375 165.223 153.25 165.223 151.5V144H163.379V151.625C163.379 154.687 165.004 156.156 167.254 156.156C169.066 156.156 170.254 155.187 170.816 153.969H170.941V156H172.785V144H170.941V151.094ZM176.162 156H178.006V148.406C178.006 146.781 179.287 145.594 181.037 145.594C181.529 145.594 182.037 145.688 182.162 145.719V143.844C181.951 143.828 181.467 143.812 181.193 143.812C179.756 143.812 178.506 144.625 178.068 145.812H177.943V144H176.162V156ZM189.014 156.25C191.451 156.25 193.232 155.031 193.795 153.219L192.014 152.719C191.545 153.969 190.459 154.594 189.014 154.594C186.85 154.594 185.357 153.195 185.271 150.625H193.982V149.844C193.982 145.375 191.326 143.844 188.826 143.844C185.576 143.844 183.42 146.406 183.42 150.094C183.42 153.781 185.545 156.25 189.014 156.25ZM185.271 149.031C185.396 147.164 186.717 145.5 188.826 145.5C190.826 145.5 192.107 147 192.107 149.031H185.271ZM207.506 156.25C209.818 156.25 210.6 154.812 211.006 154.156H211.225V156H213.006V140H211.162V145.906H211.006C210.6 145.281 209.881 143.844 207.537 143.844C204.506 143.844 202.412 146.25 202.412 150.031C202.412 153.844 204.506 156.25 207.506 156.25ZM207.756 154.594C205.443 154.594 204.256 152.562 204.256 150C204.256 147.469 205.412 145.5 207.756 145.5C210.006 145.5 211.193 147.312 211.193 150C211.193 152.719 209.975 154.594 207.756 154.594ZM221.514 156.25C224.764 156.25 226.951 153.781 226.951 150.062C226.951 146.312 224.764 143.844 221.514 143.844C218.264 143.844 216.076 146.312 216.076 150.062C216.076 153.781 218.264 156.25 221.514 156.25ZM221.514 154.594C219.045 154.594 217.92 152.469 217.92 150.062C217.92 147.656 219.045 145.5 221.514 145.5C223.982 145.5 225.107 147.656 225.107 150.062C225.107 152.469 223.982 154.594 221.514 154.594ZM231.609 140H229.766V156H231.609V140ZM239.861 156.25C243.111 156.25 245.299 153.781 245.299 150.062C245.299 146.312 243.111 143.844 239.861 143.844C236.611 143.844 234.424 146.312 234.424 150.062C234.424 153.781 236.611 156.25 239.861 156.25ZM239.861 154.594C237.393 154.594 236.268 152.469 236.268 150.062C236.268 147.656 237.393 145.5 239.861 145.5C242.33 145.5 243.455 147.656 243.455 150.062C243.455 152.469 242.33 154.594 239.861 154.594ZM248.113 156H249.957V148.406C249.957 146.781 251.238 145.594 252.988 145.594C253.48 145.594 253.988 145.688 254.113 145.719V143.844C253.902 143.828 253.418 143.812 253.145 143.812C251.707 143.812 250.457 144.625 250.02 145.812H249.895V144H248.113V156ZM260.965 156.25C263.402 156.25 265.184 155.031 265.746 153.219L263.965 152.719C263.496 153.969 262.41 154.594 260.965 154.594C258.801 154.594 257.309 153.195 257.223 150.625H265.934V149.844C265.934 145.375 263.277 143.844 260.777 143.844C257.527 143.844 255.371 146.406 255.371 150.094C255.371 153.781 257.496 156.25 260.965 156.25ZM257.223 149.031C257.348 147.164 258.668 145.5 260.777 145.5C262.777 145.5 264.059 147 264.059 149.031H257.223ZM284.738 144H282.738L279.426 153.562H279.301L275.988 144H273.988L278.426 156H280.301L284.738 144ZM291.773 156.25C294.211 156.25 295.992 155.031 296.555 153.219L294.773 152.719C294.305 153.969 293.219 154.594 291.773 154.594C289.609 154.594 288.117 153.195 288.031 150.625H296.742V149.844C296.742 145.375 294.086 143.844 291.586 143.844C288.336 143.844 286.18 146.406 286.18 150.094C286.18 153.781 288.305 156.25 291.773 156.25ZM288.031 149.031C288.156 147.164 289.477 145.5 291.586 145.5C293.586 145.5 294.867 147 294.867 149.031H288.031ZM301.391 140H299.547V156H301.391V140ZM304.768 156H306.611V144H304.768V156ZM305.705 142C306.424 142 307.018 141.438 307.018 140.75C307.018 140.063 306.424 139.5 305.705 139.5C304.986 139.5 304.393 140.063 304.393 140.75C304.393 141.438 304.986 142 305.705 142ZM315.207 144H312.645V141.125H310.801V144H308.988V145.562H310.801V153.062C310.801 155.156 312.488 156.156 314.051 156.156C314.738 156.156 315.176 156.031 315.426 155.937L315.051 154.281C314.895 154.312 314.645 154.375 314.238 154.375C313.426 154.375 312.645 154.125 312.645 152.562V145.562H315.207V144ZM331.73 151.094C331.73 153.344 330.012 154.375 328.637 154.375C327.105 154.375 326.012 153.25 326.012 151.5V144H324.168V151.625C324.168 154.687 325.793 156.156 328.043 156.156C329.855 156.156 331.043 155.187 331.605 153.969H331.73V156H333.574V144H331.73V151.094ZM342.17 144H339.607V141.125H337.764V144H335.951V145.562H337.764V153.062C337.764 155.156 339.451 156.156 341.014 156.156C341.701 156.156 342.139 156.031 342.389 155.937L342.014 154.281C341.857 154.312 341.607 154.375 341.201 154.375C340.389 154.375 339.607 154.125 339.607 152.562V145.562H342.17V144ZM351.131 156H352.975V144H351.131V156ZM352.068 142C352.787 142 353.381 141.438 353.381 140.75C353.381 140.063 352.787 139.5 352.068 139.5C351.35 139.5 350.756 140.063 350.756 140.75C350.756 141.438 351.35 142 352.068 142ZM356.352 156H358.195V148.406C358.195 146.781 359.477 145.594 361.227 145.594C361.719 145.594 362.227 145.688 362.352 145.719V143.844C362.141 143.828 361.656 143.812 361.383 143.812C359.945 143.812 358.695 144.625 358.258 145.812H358.133V144H356.352V156ZM372.1 151.094C372.1 153.344 370.381 154.375 369.006 154.375C367.475 154.375 366.381 153.25 366.381 151.5V144H364.537V151.625C364.537 154.687 366.162 156.156 368.412 156.156C370.225 156.156 371.412 155.187 371.975 153.969H372.1V156H373.943V144H372.1V151.094ZM377.32 156H379.164V148.406C379.164 146.781 380.445 145.594 382.195 145.594C382.688 145.594 383.195 145.688 383.32 145.719V143.844C383.109 143.828 382.625 143.812 382.352 143.812C380.914 143.812 379.664 144.625 379.227 145.812H379.102V144H377.32V156ZM390.172 156.25C392.609 156.25 394.391 155.031 394.953 153.219L393.172 152.719C392.703 153.969 391.617 154.594 390.172 154.594C388.008 154.594 386.516 153.195 386.43 150.625H395.141V149.844C395.141 145.375 392.484 143.844 389.984 143.844C386.734 143.844 384.578 146.406 384.578 150.094C384.578 153.781 386.703 156.25 390.172 156.25ZM386.43 149.031C386.555 147.164 387.875 145.5 389.984 145.5C391.984 145.5 393.266 147 393.266 149.031H386.43ZM405.977 140H404.133V156H405.977V140ZM412.885 156.281C414.979 156.281 416.072 155.156 416.447 154.375H416.541V156H418.385V148.094C418.385 144.281 415.479 143.844 413.947 143.844C412.135 143.844 410.072 144.469 409.135 146.656L410.885 147.281C411.291 146.406 412.252 145.469 414.01 145.469C415.705 145.469 416.541 146.367 416.541 147.906V147.969C416.541 148.859 415.635 148.781 413.447 149.063C411.221 149.352 408.791 149.844 408.791 152.594C408.791 154.937 410.604 156.281 412.885 156.281ZM413.166 154.625C411.697 154.625 410.635 153.969 410.635 152.687C410.635 151.281 411.916 150.844 413.354 150.656C414.135 150.562 416.229 150.344 416.541 149.969V151.656C416.541 153.156 415.354 154.625 413.166 154.625ZM422 156H423.781V154.156H424C424.406 154.812 425.188 156.25 427.5 156.25C430.5 156.25 432.594 153.844 432.594 150.031C432.594 146.25 430.5 143.844 427.469 143.844C425.125 143.844 424.406 145.281 424 145.906H423.844V140H422V156ZM423.813 150C423.813 147.312 425 145.5 427.25 145.5C429.594 145.5 430.75 147.469 430.75 150C430.75 152.562 429.563 154.594 427.25 154.594C425.031 154.594 423.813 152.719 423.813 150ZM440.289 156.25C443.539 156.25 445.727 153.781 445.727 150.062C445.727 146.312 443.539 143.844 440.289 143.844C437.039 143.844 434.852 146.312 434.852 150.062C434.852 153.781 437.039 156.25 440.289 156.25ZM440.289 154.594C437.82 154.594 436.695 152.469 436.695 150.062C436.695 147.656 437.82 145.5 440.289 145.5C442.758 145.5 443.883 147.656 443.883 150.062C443.883 152.469 442.758 154.594 440.289 154.594ZM448.541 156H450.385V148.406C450.385 146.781 451.666 145.594 453.416 145.594C453.908 145.594 454.416 145.688 454.541 145.719V143.844C454.33 143.828 453.846 143.812 453.572 143.812C452.135 143.812 450.885 144.625 450.447 145.812H450.322V144H448.541V156ZM461.393 156.25C463.83 156.25 465.611 155.031 466.174 153.219L464.393 152.719C463.924 153.969 462.838 154.594 461.393 154.594C459.229 154.594 457.736 153.195 457.65 150.625H466.361V149.844C466.361 145.375 463.705 143.844 461.205 143.844C457.955 143.844 455.799 146.406 455.799 150.094C455.799 153.781 457.924 156.25 461.393 156.25ZM457.65 149.031C457.775 147.164 459.096 145.5 461.205 145.5C463.205 145.5 464.486 147 464.486 149.031H457.65ZM480.385 156.25C482.822 156.25 484.604 155.031 485.166 153.219L483.385 152.719C482.916 153.969 481.83 154.594 480.385 154.594C478.221 154.594 476.729 153.195 476.643 150.625H485.354V149.844C485.354 145.375 482.697 143.844 480.197 143.844C476.947 143.844 474.791 146.406 474.791 150.094C474.791 153.781 476.916 156.25 480.385 156.25ZM476.643 149.031C476.768 147.164 478.088 145.5 480.197 145.5C482.197 145.5 483.479 147 483.479 149.031H476.643ZM493.377 144H490.814V141.125H488.971V144H487.158V145.562H488.971V153.062C488.971 155.156 490.658 156.156 492.221 156.156C492.908 156.156 493.346 156.031 493.596 155.937L493.221 154.281C493.064 154.312 492.814 154.375 492.408 154.375C491.596 154.375 490.814 154.125 490.814 152.562V145.562H493.377V144ZM1.6875 188.5H3.53125V182.156H3.6875C4.09375 182.812 4.875 184.25 7.1875 184.25C10.1875 184.25 12.2812 181.844 12.2812 178.031C12.2812 174.25 10.1875 171.844 7.15625 171.844C4.8125 171.844 4.09375 173.281 3.6875 173.906H3.46875V172H1.6875V188.5ZM3.5 178C3.5 175.312 4.6875 173.5 6.9375 173.5C9.28125 173.5 10.4375 175.469 10.4375 178C10.4375 180.562 9.25 182.594 6.9375 182.594C4.71875 182.594 3.5 180.719 3.5 178ZM18.625 184.281C20.7188 184.281 21.8125 183.156 22.1875 182.375H22.2813V184H24.125V176.094C24.125 172.281 21.2188 171.844 19.6875 171.844C17.875 171.844 15.8125 172.469 14.875 174.656L16.625 175.281C17.0313 174.406 17.9922 173.469 19.75 173.469C21.4453 173.469 22.2813 174.367 22.2813 175.906V175.969C22.2813 176.859 21.375 176.781 19.1875 177.063C16.9609 177.352 14.5313 177.844 14.5313 180.594C14.5313 182.937 16.3438 184.281 18.625 184.281ZM18.9062 182.625C17.4375 182.625 16.375 181.969 16.375 180.687C16.375 179.281 17.6563 178.844 19.0938 178.656C19.875 178.562 21.9688 178.344 22.2813 177.969V179.656C22.2813 181.156 21.0938 182.625 18.9062 182.625ZM27.4902 184H29.334V176.406C29.334 174.781 30.6152 173.594 32.3652 173.594C32.8574 173.594 33.3652 173.688 33.4902 173.719V171.844C33.2793 171.828 32.7949 171.812 32.5215 171.812C31.084 171.812 29.834 172.625 29.3965 173.812H29.2715V172H27.4902V184ZM35.6758 184H37.5195V172H35.6758V184ZM36.6133 170C37.332 170 37.9258 169.438 37.9258 168.75C37.9258 168.063 37.332 167.5 36.6133 167.5C35.8945 167.5 35.3008 168.063 35.3008 168.75C35.3008 169.438 35.8945 170 36.6133 170ZM44.4277 184.281C46.5215 184.281 47.6152 183.156 47.9902 182.375H48.084V184H49.9277V176.094C49.9277 172.281 47.0215 171.844 45.4902 171.844C43.6777 171.844 41.6152 172.469 40.6777 174.656L42.4277 175.281C42.834 174.406 43.7949 173.469 45.5527 173.469C47.248 173.469 48.084 174.367 48.084 175.906V175.969C48.084 176.859 47.1777 176.781 44.9902 177.063C42.7637 177.352 40.334 177.844 40.334 180.594C40.334 182.937 42.1465 184.281 44.4277 184.281ZM44.709 182.625C43.2402 182.625 42.1777 181.969 42.1777 180.687C42.1777 179.281 43.459 178.844 44.8965 178.656C45.6777 178.562 47.7715 178.344 48.084 177.969V179.656C48.084 181.156 46.8965 182.625 44.709 182.625ZM58.5117 172H55.9492V169.125H54.1055V172H52.293V173.562H54.1055V181.062C54.1055 183.156 55.793 184.156 57.3555 184.156C58.043 184.156 58.4805 184.031 58.7305 183.937L58.3555 182.281C58.1992 182.312 57.9492 182.375 57.543 182.375C56.7305 182.375 55.9492 182.125 55.9492 180.562V173.562H58.5117V172ZM68.8477 179.094C68.8477 181.344 67.1289 182.375 65.7539 182.375C64.2227 182.375 63.1289 181.25 63.1289 179.5V172H61.2852V179.625C61.2852 182.687 62.9102 184.156 65.1602 184.156C66.9727 184.156 68.1602 183.187 68.7227 181.969H68.8477V184H70.6914V172H68.8477V179.094ZM74.0684 184H75.9121V176.406C75.9121 174.781 77.1934 173.594 78.9434 173.594C79.4355 173.594 79.9434 173.688 80.0684 173.719V171.844C79.8574 171.828 79.373 171.812 79.0996 171.812C77.6621 171.812 76.4121 172.625 75.9746 173.812H75.8496V172H74.0684V184ZM98.2539 172H96.2539L92.9414 181.562H92.8164L89.5039 172H87.5039L91.9414 184H93.8164L98.2539 172ZM105.133 184.25C108.383 184.25 110.57 181.781 110.57 178.062C110.57 174.312 108.383 171.844 105.133 171.844C101.883 171.844 99.6953 174.312 99.6953 178.062C99.6953 181.781 101.883 184.25 105.133 184.25ZM105.133 182.594C102.664 182.594 101.539 180.469 101.539 178.062C101.539 175.656 102.664 173.5 105.133 173.5C107.602 173.5 108.727 175.656 108.727 178.062C108.727 180.469 107.602 182.594 105.133 182.594ZM115.229 168H113.385V184H115.229V168ZM126.168 179.094C126.168 181.344 124.449 182.375 123.074 182.375C121.543 182.375 120.449 181.25 120.449 179.5V172H118.605V179.625C118.605 182.687 120.23 184.156 122.48 184.156C124.293 184.156 125.48 183.187 126.043 181.969H126.168V184H128.012V172H126.168V179.094ZM131.389 188.5H133.232V182.156H133.389C133.795 182.812 134.576 184.25 136.889 184.25C139.889 184.25 141.982 181.844 141.982 178.031C141.982 174.25 139.889 171.844 136.857 171.844C134.514 171.844 133.795 173.281 133.389 173.906H133.17V172H131.389V188.5ZM133.201 178C133.201 175.312 134.389 173.5 136.639 173.5C138.982 173.5 140.139 175.469 140.139 178C140.139 180.562 138.951 182.594 136.639 182.594C134.42 182.594 133.201 180.719 133.201 178ZM150.014 172H147.451V169.125H145.607V172H143.795V173.562H145.607V181.062C145.607 183.156 147.295 184.156 148.857 184.156C149.545 184.156 149.982 184.031 150.232 183.937L149.857 182.281C149.701 182.312 149.451 182.375 149.045 182.375C148.232 182.375 147.451 182.125 147.451 180.562V173.562H150.014V172ZM156.318 184.281C158.412 184.281 159.506 183.156 159.881 182.375H159.975V184H161.818V176.094C161.818 172.281 158.912 171.844 157.381 171.844C155.568 171.844 153.506 172.469 152.568 174.656L154.318 175.281C154.725 174.406 155.686 173.469 157.443 173.469C159.139 173.469 159.975 174.367 159.975 175.906V175.969C159.975 176.859 159.068 176.781 156.881 177.063C154.654 177.352 152.225 177.844 152.225 180.594C152.225 182.937 154.037 184.281 156.318 184.281ZM156.6 182.625C155.131 182.625 154.068 181.969 154.068 180.687C154.068 179.281 155.35 178.844 156.787 178.656C157.568 178.562 159.662 178.344 159.975 177.969V179.656C159.975 181.156 158.787 182.625 156.6 182.625ZM170.402 172H167.84V169.125H165.996V172H164.184V173.562H165.996V181.062C165.996 183.156 167.684 184.156 169.246 184.156C169.934 184.156 170.371 184.031 170.621 183.937L170.246 182.281C170.09 182.312 169.84 182.375 169.434 182.375C168.621 182.375 167.84 182.125 167.84 180.562V173.562H170.402V172ZM178.078 184.25C180.516 184.25 182.297 183.031 182.859 181.219L181.078 180.719C180.609 181.969 179.523 182.594 178.078 182.594C175.914 182.594 174.422 181.195 174.336 178.625H183.047V177.844C183.047 173.375 180.391 171.844 177.891 171.844C174.641 171.844 172.484 174.406 172.484 178.094C172.484 181.781 174.609 184.25 178.078 184.25ZM174.336 177.031C174.461 175.164 175.781 173.5 177.891 173.5C179.891 173.5 181.172 175 181.172 177.031H174.336ZM196.914 184.25C199.57 184.25 201.32 182.625 201.633 180.5H199.789C199.445 181.812 198.352 182.594 196.914 182.594C194.727 182.594 193.32 180.781 193.32 178C193.32 175.281 194.758 173.5 196.914 173.5C198.539 173.5 199.508 174.5 199.789 175.594H201.633C201.32 173.344 199.414 171.844 196.883 171.844C193.633 171.844 191.477 174.406 191.477 178.062C191.477 181.656 193.539 184.25 196.914 184.25ZM209.203 184.25C212.453 184.25 214.641 181.781 214.641 178.062C214.641 174.312 212.453 171.844 209.203 171.844C205.953 171.844 203.766 174.312 203.766 178.062C203.766 181.781 205.953 184.25 209.203 184.25ZM209.203 182.594C206.734 182.594 205.609 180.469 205.609 178.062C205.609 175.656 206.734 173.5 209.203 173.5C211.672 173.5 212.797 175.656 212.797 178.062C212.797 180.469 211.672 182.594 209.203 182.594ZM217.455 184H219.299V176.5C219.299 174.742 220.58 173.5 222.018 173.5C223.416 173.5 224.393 174.414 224.393 175.781V184H226.268V176.187C226.268 174.641 227.236 173.5 228.924 173.5C230.236 173.5 231.361 174.195 231.361 175.969V184H233.205V175.969C233.205 173.148 231.689 171.844 229.549 171.844C227.83 171.844 226.572 172.633 225.955 173.875H225.83C225.236 172.594 224.189 171.844 222.611 171.844C221.049 171.844 219.893 172.594 219.393 173.875H219.236V172H217.455V184ZM236.576 184H238.42V176.5C238.42 174.742 239.701 173.5 241.139 173.5C242.537 173.5 243.514 174.414 243.514 175.781V184H245.389V176.187C245.389 174.641 246.357 173.5 248.045 173.5C249.357 173.5 250.482 174.195 250.482 175.969V184H252.326V175.969C252.326 173.148 250.811 171.844 248.67 171.844C246.951 171.844 245.693 172.633 245.076 173.875H244.951C244.357 172.594 243.311 171.844 241.732 171.844C240.17 171.844 239.014 172.594 238.514 173.875H238.357V172H236.576V184ZM260.572 184.25C263.822 184.25 266.01 181.781 266.01 178.062C266.01 174.312 263.822 171.844 260.572 171.844C257.322 171.844 255.135 174.312 255.135 178.062C255.135 181.781 257.322 184.25 260.572 184.25ZM260.572 182.594C258.104 182.594 256.979 180.469 256.979 178.062C256.979 175.656 258.104 173.5 260.572 173.5C263.041 173.5 264.166 175.656 264.166 178.062C264.166 180.469 263.041 182.594 260.572 182.594ZM273.355 184.25C275.668 184.25 276.449 182.812 276.855 182.156H277.074V184H278.855V168H277.012V173.906H276.855C276.449 173.281 275.73 171.844 273.387 171.844C270.355 171.844 268.262 174.25 268.262 178.031C268.262 181.844 270.355 184.25 273.355 184.25ZM273.605 182.594C271.293 182.594 270.105 180.562 270.105 178C270.105 175.469 271.262 173.5 273.605 173.5C275.855 173.5 277.043 175.312 277.043 178C277.043 180.719 275.824 182.594 273.605 182.594ZM287.363 184.25C290.613 184.25 292.801 181.781 292.801 178.062C292.801 174.312 290.613 171.844 287.363 171.844C284.113 171.844 281.926 174.312 281.926 178.062C281.926 181.781 284.113 184.25 287.363 184.25ZM287.363 182.594C284.895 182.594 283.77 180.469 283.77 178.062C283.77 175.656 284.895 173.5 287.363 173.5C289.832 173.5 290.957 175.656 290.957 178.062C290.957 180.469 289.832 182.594 287.363 182.594ZM296.959 184.125C297.732 184.125 298.365 183.492 298.365 182.719C298.365 181.945 297.732 181.312 296.959 181.312C296.186 181.312 295.553 181.945 295.553 182.719C295.553 183.492 296.186 184.125 296.959 184.125ZM308.111 184H317.486V182.281H310.049V168H308.111V184ZM325.111 184.25C328.361 184.25 330.549 181.781 330.549 178.062C330.549 174.312 328.361 171.844 325.111 171.844C321.861 171.844 319.674 174.312 319.674 178.062C319.674 181.781 321.861 184.25 325.111 184.25ZM325.111 182.594C322.643 182.594 321.518 180.469 321.518 178.062C321.518 175.656 322.643 173.5 325.111 173.5C327.58 173.5 328.705 175.656 328.705 178.062C328.705 180.469 327.58 182.594 325.111 182.594ZM333.363 184H335.207V176.406C335.207 174.781 336.488 173.594 338.238 173.594C338.73 173.594 339.238 173.688 339.363 173.719V171.844C339.152 171.828 338.668 171.812 338.395 171.812C336.957 171.812 335.707 172.625 335.27 173.812H335.145V172H333.363V184ZM346.215 184.25C348.652 184.25 350.434 183.031 350.996 181.219L349.215 180.719C348.746 181.969 347.66 182.594 346.215 182.594C344.051 182.594 342.559 181.195 342.473 178.625H351.184V177.844C351.184 173.375 348.527 171.844 346.027 171.844C342.777 171.844 340.621 174.406 340.621 178.094C340.621 181.781 342.746 184.25 346.215 184.25ZM342.473 177.031C342.598 175.164 343.918 173.5 346.027 173.5C348.027 173.5 349.309 175 349.309 177.031H342.473ZM353.988 184H355.832V176.5C355.832 174.742 357.113 173.5 358.551 173.5C359.949 173.5 360.926 174.414 360.926 175.781V184H362.801V176.187C362.801 174.641 363.77 173.5 365.457 173.5C366.77 173.5 367.895 174.195 367.895 175.969V184H369.738V175.969C369.738 173.148 368.223 171.844 366.082 171.844C364.363 171.844 363.105 172.633 362.488 173.875H362.363C361.77 172.594 360.723 171.844 359.145 171.844C357.582 171.844 356.426 172.594 355.926 173.875H355.77V172H353.988V184ZM384.328 184.25C386.766 184.25 388.547 183.031 389.109 181.219L387.328 180.719C386.859 181.969 385.773 182.594 384.328 182.594C382.164 182.594 380.672 181.195 380.586 178.625H389.297V177.844C389.297 173.375 386.641 171.844 384.141 171.844C380.891 171.844 378.734 174.406 378.734 178.094C378.734 181.781 380.859 184.25 384.328 184.25ZM380.586 177.031C380.711 175.164 382.031 173.5 384.141 173.5C386.141 173.5 387.422 175 387.422 177.031H380.586ZM397.32 172H394.758V169.125H392.914V172H391.102V173.562H392.914V181.062C392.914 183.156 394.602 184.156 396.164 184.156C396.852 184.156 397.289 184.031 397.539 183.937L397.164 182.281C397.008 182.312 396.758 182.375 396.352 182.375C395.539 182.375 394.758 182.125 394.758 180.562V173.562H397.32V172ZM408.125 168H406.281V184H408.125V168ZM415.033 184.281C417.127 184.281 418.221 183.156 418.596 182.375H418.689V184H420.533V176.094C420.533 172.281 417.627 171.844 416.096 171.844C414.283 171.844 412.221 172.469 411.283 174.656L413.033 175.281C413.439 174.406 414.4 173.469 416.158 173.469C417.854 173.469 418.689 174.367 418.689 175.906V175.969C418.689 176.859 417.783 176.781 415.596 177.063C413.369 177.352 410.939 177.844 410.939 180.594C410.939 182.937 412.752 184.281 415.033 184.281ZM415.314 182.625C413.846 182.625 412.783 181.969 412.783 180.687C412.783 179.281 414.064 178.844 415.502 178.656C416.283 178.562 418.377 178.344 418.689 177.969V179.656C418.689 181.156 417.502 182.625 415.314 182.625ZM424.148 184H425.93V182.156H426.148C426.555 182.812 427.336 184.25 429.648 184.25C432.648 184.25 434.742 181.844 434.742 178.031C434.742 174.25 432.648 171.844 429.617 171.844C427.273 171.844 426.555 173.281 426.148 173.906H425.992V168H424.148V184ZM425.961 178C425.961 175.312 427.148 173.5 429.398 173.5C431.742 173.5 432.898 175.469 432.898 178C432.898 180.562 431.711 182.594 429.398 182.594C427.18 182.594 425.961 180.719 425.961 178ZM442.438 184.25C445.688 184.25 447.875 181.781 447.875 178.062C447.875 174.312 445.688 171.844 442.438 171.844C439.188 171.844 437 174.312 437 178.062C437 181.781 439.188 184.25 442.438 184.25ZM442.438 182.594C439.969 182.594 438.844 180.469 438.844 178.062C438.844 175.656 439.969 173.5 442.438 173.5C444.906 173.5 446.031 175.656 446.031 178.062C446.031 180.469 444.906 182.594 442.438 182.594ZM450.689 184H452.533V176.406C452.533 174.781 453.814 173.594 455.564 173.594C456.057 173.594 456.564 173.688 456.689 173.719V171.844C456.479 171.828 455.994 171.812 455.721 171.812C454.283 171.812 453.033 172.625 452.596 173.812H452.471V172H450.689V184ZM458.875 184H460.719V172H458.875V184ZM459.813 170C460.531 170 461.125 169.438 461.125 168.75C461.125 168.063 460.531 167.5 459.813 167.5C459.094 167.5 458.5 168.063 458.5 168.75C458.5 169.438 459.094 170 459.813 170ZM472.596 174.687C472.018 172.984 470.721 171.844 468.346 171.844C465.814 171.844 463.939 173.281 463.939 175.312C463.939 176.969 464.924 178.078 467.127 178.594L469.127 179.062C470.338 179.344 470.908 179.922 470.908 180.75C470.908 181.781 469.814 182.625 468.096 182.625C466.588 182.625 465.643 181.977 465.314 180.687L463.564 181.125C463.994 183.164 465.674 184.25 468.127 184.25C470.916 184.25 472.814 182.727 472.814 180.656C472.814 178.984 471.768 177.93 469.627 177.406L467.846 176.969C466.424 176.617 465.783 176.141 465.783 175.219C465.783 174.187 466.877 173.437 468.346 173.437C469.955 173.437 470.619 174.328 470.939 175.156L472.596 174.687ZM3.53125 196H1.6875V212H3.53125V196ZM10.4395 212.281C12.5332 212.281 13.627 211.156 14.002 210.375H14.0957V212H15.9395V204.094C15.9395 200.281 13.0332 199.844 11.502 199.844C9.68945 199.844 7.62695 200.469 6.68945 202.656L8.43945 203.281C8.8457 202.406 9.80664 201.469 11.5645 201.469C13.2598 201.469 14.0957 202.367 14.0957 203.906V203.969C14.0957 204.859 13.1895 204.781 11.002 205.063C8.77539 205.352 6.3457 205.844 6.3457 208.594C6.3457 210.937 8.1582 212.281 10.4395 212.281ZM10.7207 210.625C9.25195 210.625 8.18945 209.969 8.18945 208.687C8.18945 207.281 9.4707 206.844 10.9082 206.656C11.6895 206.562 13.7832 206.344 14.0957 205.969V207.656C14.0957 209.156 12.9082 210.625 10.7207 210.625ZM19.5547 212H21.3359V210.156H21.5547C21.9609 210.812 22.7422 212.25 25.0547 212.25C28.0547 212.25 30.1484 209.844 30.1484 206.031C30.1484 202.25 28.0547 199.844 25.0234 199.844C22.6797 199.844 21.9609 201.281 21.5547 201.906H21.3984V196H19.5547V212ZM21.3672 206C21.3672 203.312 22.5547 201.5 24.8047 201.5C27.1484 201.5 28.3047 203.469 28.3047 206C28.3047 208.562 27.1172 210.594 24.8047 210.594C22.5859 210.594 21.3672 208.719 21.3672 206ZM37.8438 212.25C41.0938 212.25 43.2813 209.781 43.2813 206.062C43.2813 202.312 41.0938 199.844 37.8438 199.844C34.5938 199.844 32.4063 202.312 32.4063 206.062C32.4063 209.781 34.5938 212.25 37.8438 212.25ZM37.8438 210.594C35.375 210.594 34.25 208.469 34.25 206.062C34.25 203.656 35.375 201.5 37.8438 201.5C40.3125 201.5 41.4375 203.656 41.4375 206.062C41.4375 208.469 40.3125 210.594 37.8438 210.594ZM46.0957 212H47.9395V204.406C47.9395 202.781 49.2207 201.594 50.9707 201.594C51.4629 201.594 51.9707 201.688 52.0957 201.719V199.844C51.8848 199.828 51.4004 199.812 51.127 199.812C49.6895 199.812 48.4395 200.625 48.002 201.812H47.877V200H46.0957V212ZM61.8438 207.094C61.8438 209.344 60.125 210.375 58.75 210.375C57.2188 210.375 56.125 209.25 56.125 207.5V200H54.2813V207.625C54.2813 210.687 55.9063 212.156 58.1562 212.156C59.9688 212.156 61.1563 211.187 61.7188 209.969H61.8438V212H63.6875V200H61.8438V207.094ZM67.0645 212H68.9082V204.5C68.9082 202.742 70.1895 201.5 71.627 201.5C73.0254 201.5 74.002 202.414 74.002 203.781V212H75.877V204.187C75.877 202.641 76.8457 201.5 78.5332 201.5C79.8457 201.5 80.9707 202.195 80.9707 203.969V212H82.8145V203.969C82.8145 201.148 81.2988 199.844 79.1582 199.844C77.4395 199.844 76.1816 200.633 75.5645 201.875H75.4395C74.8457 200.594 73.7988 199.844 72.2207 199.844C70.6582 199.844 69.502 200.594 69.002 201.875H68.8457V200H67.0645V212ZM92.373 212H94.2168V204.406C94.2168 202.781 95.498 201.594 97.248 201.594C97.7402 201.594 98.248 201.688 98.373 201.719V199.844C98.1621 199.828 97.6777 199.812 97.4043 199.812C95.9668 199.812 94.7168 200.625 94.2793 201.812H94.1543V200H92.373V212ZM105.225 212.25C107.662 212.25 109.443 211.031 110.006 209.219L108.225 208.719C107.756 209.969 106.67 210.594 105.225 210.594C103.061 210.594 101.568 209.195 101.482 206.625H110.193V205.844C110.193 201.375 107.537 199.844 105.037 199.844C101.787 199.844 99.6309 202.406 99.6309 206.094C99.6309 209.781 101.756 212.25 105.225 212.25ZM101.482 205.031C101.607 203.164 102.928 201.5 105.037 201.5C107.037 201.5 108.318 203 108.318 205.031H101.482ZM112.998 216.5H114.842V210.156H114.998C115.404 210.812 116.186 212.25 118.498 212.25C121.498 212.25 123.592 209.844 123.592 206.031C123.592 202.25 121.498 199.844 118.467 199.844C116.123 199.844 115.404 201.281 114.998 201.906H114.779V200H112.998V216.5ZM114.811 206C114.811 203.312 115.998 201.5 118.248 201.5C120.592 201.5 121.748 203.469 121.748 206C121.748 208.562 120.561 210.594 118.248 210.594C116.029 210.594 114.811 208.719 114.811 206ZM126.404 212H128.248V204.406C128.248 202.781 129.529 201.594 131.279 201.594C131.771 201.594 132.279 201.688 132.404 201.719V199.844C132.193 199.828 131.709 199.812 131.436 199.812C129.998 199.812 128.748 200.625 128.311 201.812H128.186V200H126.404V212ZM139.256 212.25C141.693 212.25 143.475 211.031 144.037 209.219L142.256 208.719C141.787 209.969 140.701 210.594 139.256 210.594C137.092 210.594 135.6 209.195 135.514 206.625H144.225V205.844C144.225 201.375 141.568 199.844 139.068 199.844C135.818 199.844 133.662 202.406 133.662 206.094C133.662 209.781 135.787 212.25 139.256 212.25ZM135.514 205.031C135.639 203.164 136.959 201.5 139.068 201.5C141.068 201.5 142.35 203 142.35 205.031H135.514ZM148.873 204.781C148.873 202.687 150.209 201.5 152.029 201.5C153.764 201.5 154.811 202.594 154.811 204.5V212H156.654V204.375C156.654 201.289 155.014 199.844 152.561 199.844C150.67 199.844 149.592 200.633 149.029 201.875H148.873V196H147.029V212H148.873V204.781ZM165.059 212.25C167.496 212.25 169.277 211.031 169.84 209.219L168.059 208.719C167.59 209.969 166.504 210.594 165.059 210.594C162.895 210.594 161.402 209.195 161.316 206.625H170.027V205.844C170.027 201.375 167.371 199.844 164.871 199.844C161.621 199.844 159.465 202.406 159.465 206.094C159.465 209.781 161.59 212.25 165.059 212.25ZM161.316 205.031C161.441 203.164 162.762 201.5 164.871 201.5C166.871 201.5 168.152 203 168.152 205.031H161.316ZM174.676 204.781C174.676 202.687 175.973 201.5 177.738 201.5C179.449 201.5 180.488 202.617 180.488 204.5V212H182.332V204.375C182.332 201.312 180.699 199.844 178.27 199.844C176.457 199.844 175.332 200.656 174.77 201.875H174.613V200H172.832V212H174.676V204.781ZM190.232 212.25C192.545 212.25 193.326 210.812 193.732 210.156H193.951V212H195.732V196H193.889V201.906H193.732C193.326 201.281 192.607 199.844 190.264 199.844C187.232 199.844 185.139 202.25 185.139 206.031C185.139 209.844 187.232 212.25 190.232 212.25ZM190.482 210.594C188.17 210.594 186.982 208.562 186.982 206C186.982 203.469 188.139 201.5 190.482 201.5C192.732 201.5 193.92 203.312 193.92 206C193.92 208.719 192.701 210.594 190.482 210.594ZM204.396 212.25C206.834 212.25 208.615 211.031 209.178 209.219L207.396 208.719C206.928 209.969 205.842 210.594 204.396 210.594C202.232 210.594 200.74 209.195 200.654 206.625H209.365V205.844C209.365 201.375 206.709 199.844 204.209 199.844C200.959 199.844 198.803 202.406 198.803 206.094C198.803 209.781 200.928 212.25 204.396 212.25ZM200.654 205.031C200.779 203.164 202.1 201.5 204.209 201.5C206.209 201.5 207.49 203 207.49 205.031H200.654ZM212.17 212H214.014V204.406C214.014 202.781 215.295 201.594 217.045 201.594C217.537 201.594 218.045 201.688 218.17 201.719V199.844C217.959 199.828 217.475 199.812 217.201 199.812C215.764 199.812 214.514 200.625 214.076 201.812H213.951V200H212.17V212ZM220.355 212H222.199V200H220.355V212ZM221.293 198C222.012 198 222.605 197.438 222.605 196.75C222.605 196.063 222.012 195.5 221.293 195.5C220.574 195.5 219.98 196.063 219.98 196.75C219.98 197.438 220.574 198 221.293 198ZM230.795 200H228.232V197.125H226.389V200H224.576V201.562H226.389V209.062C226.389 211.156 228.076 212.156 229.639 212.156C230.326 212.156 230.764 212.031 231.014 211.937L230.639 210.281C230.482 210.312 230.232 210.375 229.826 210.375C229.014 210.375 228.232 210.125 228.232 208.562V201.562H230.795V200ZM249.787 216.5V200H248.006V201.906H247.787C247.381 201.281 246.662 199.844 244.318 199.844C241.287 199.844 239.193 202.25 239.193 206.031C239.193 209.844 241.287 212.25 244.287 212.25C246.6 212.25 247.381 210.812 247.787 210.156H247.943V216.5H249.787ZM247.975 206C247.975 208.719 246.756 210.594 244.537 210.594C242.225 210.594 241.037 208.562 241.037 206C241.037 203.469 242.193 201.5 244.537 201.5C246.787 201.5 247.975 203.312 247.975 206ZM260.725 207.094C260.725 209.344 259.006 210.375 257.631 210.375C256.1 210.375 255.006 209.25 255.006 207.5V200H253.162V207.625C253.162 210.687 254.787 212.156 257.037 212.156C258.85 212.156 260.037 211.187 260.6 209.969H260.725V212H262.568V200H260.725V207.094ZM265.945 212H267.789V200H265.945V212ZM266.883 198C267.602 198 268.195 197.438 268.195 196.75C268.195 196.063 267.602 195.5 266.883 195.5C266.164 195.5 265.57 196.063 265.57 196.75C265.57 197.438 266.164 198 266.883 198ZM277.354 212H279.197V200H277.354V212ZM278.291 198C279.01 198 279.604 197.438 279.604 196.75C279.604 196.063 279.01 195.5 278.291 195.5C277.572 195.5 276.979 196.063 276.979 196.75C276.979 197.438 277.572 198 278.291 198ZM282.574 216.5H284.418V210.156H284.574C284.98 210.812 285.762 212.25 288.074 212.25C291.074 212.25 293.168 209.844 293.168 206.031C293.168 202.25 291.074 199.844 288.043 199.844C285.699 199.844 284.98 201.281 284.574 201.906H284.355V200H282.574V216.5ZM284.387 206C284.387 203.312 285.574 201.5 287.824 201.5C290.168 201.5 291.324 203.469 291.324 206C291.324 208.562 290.137 210.594 287.824 210.594C285.605 210.594 284.387 208.719 284.387 206ZM304.48 202.687C303.902 200.984 302.605 199.844 300.23 199.844C297.699 199.844 295.824 201.281 295.824 203.312C295.824 204.969 296.809 206.078 299.012 206.594L301.012 207.062C302.223 207.344 302.793 207.922 302.793 208.75C302.793 209.781 301.699 210.625 299.98 210.625C298.473 210.625 297.527 209.977 297.199 208.687L295.449 209.125C295.879 211.164 297.559 212.25 300.012 212.25C302.801 212.25 304.699 210.727 304.699 208.656C304.699 206.984 303.652 205.93 301.512 205.406L299.73 204.969C298.309 204.617 297.668 204.141 297.668 203.219C297.668 202.187 298.762 201.437 300.23 201.437C301.84 201.437 302.504 202.328 302.824 203.156L304.48 202.687ZM315.037 207.094C315.037 209.344 313.318 210.375 311.943 210.375C310.412 210.375 309.318 209.25 309.318 207.5V200H307.475V207.625C307.475 210.687 309.1 212.156 311.35 212.156C313.162 212.156 314.35 211.187 314.912 209.969H315.037V212H316.881V200H315.037V207.094ZM320.258 212H322.102V204.5C322.102 202.742 323.383 201.5 324.82 201.5C326.219 201.5 327.195 202.414 327.195 203.781V212H329.07V204.187C329.07 202.641 330.039 201.5 331.727 201.5C333.039 201.5 334.164 202.195 334.164 203.969V212H336.008V203.969C336.008 201.148 334.492 199.844 332.352 199.844C330.633 199.844 329.375 200.633 328.758 201.875H328.633C328.039 200.594 326.992 199.844 325.414 199.844C323.852 199.844 322.695 200.594 322.195 201.875H322.039V200H320.258V212ZM340.723 212.125C341.496 212.125 342.129 211.492 342.129 210.719C342.129 209.945 341.496 209.312 340.723 209.312C339.949 209.312 339.316 209.945 339.316 210.719C339.316 211.492 339.949 212.125 340.723 212.125Z" fill="white"/>
</svg>
